<svg width="509" height="510" viewBox="0 0 509 510" fill="none" xmlns="http://www.w3.org/2000/svg">
<path d="M254.5 42.8346C137.006 42.8346 42.4167 137.424 42.4167 254.918C42.4167 372.412 137.006 467.001 254.5 467.001C371.994 467.001 466.583 372.412 466.583 254.918C466.583 137.424 371.994 42.8346 254.5 42.8346ZM254.5 149.725C269.346 149.725 280.798 161.177 280.798 176.023C280.798 190.869 269.346 202.321 254.5 202.321C239.654 202.321 228.202 190.869 228.202 176.023C228.202 161.177 239.654 149.725 254.5 149.725ZM298.613 335.51C298.613 339.751 295.22 343.569 289.706 343.569H219.294C215.053 343.569 210.387 341.024 210.387 335.51V317.695C210.387 313.453 213.78 307.939 219.294 307.939C223.536 307.939 228.202 305.394 228.202 299.88V264.674C228.202 260.432 224.808 254.918 219.294 254.918C215.053 254.918 210.387 252.373 210.387 246.859V229.468C210.387 225.226 213.78 219.712 219.294 219.712H272.315C276.557 219.712 281.223 223.954 281.223 229.468V300.304C281.223 304.545 284.616 308.363 290.13 308.363C294.372 308.363 299.038 312.605 299.038 318.119V335.51H298.613Z" fill="black"/>
</svg>