<svg width="509" height="510" viewBox="0 0 509 510" fill="none" xmlns="http://www.w3.org/2000/svg">
<path d="M254.5 13.143C121.142 13.143 12.7251 121.56 12.7251 254.918C12.7251 388.276 121.142 496.693 254.5 496.693C387.858 496.693 496.275 388.276 496.275 254.918C496.275 121.56 387.858 13.143 254.5 13.143ZM390.912 244.738L339.503 294.62L351.72 364.862C353.247 373.514 349.683 382.677 342.557 387.767C338.484 390.821 333.394 392.348 328.815 392.348C325.252 392.348 321.688 391.331 318.126 389.803L254.501 356.717L191.385 389.802C183.75 393.874 174.079 393.364 166.952 388.274C159.826 383.184 156.264 374.021 157.789 365.369L170.006 295.127L118.088 244.736C111.47 238.629 109.436 228.957 111.981 220.814C114.526 212.162 122.161 206.052 130.813 205.035L201.564 194.855L233.121 130.721C237.702 122.576 245.337 117.486 254.5 117.486C263.662 117.486 271.298 122.576 275.368 130.72L306.925 194.854L377.676 205.034C386.329 206.051 393.964 212.669 396.509 220.812C399.564 228.957 397.019 238.629 390.912 244.736L390.912 244.738Z" fill="black"/>
</svg>